<svg xmlns="http://www.w3.org/2000/svg" viewBox="0 0 370.86 157.69"><defs><style>.cls-1{fill:#fff;}</style></defs><title>wacio-branco2</title><g id="Camada_2" data-name="Camada 2"><g id="Camada_1-2" data-name="Camada 1"><path class="cls-1" d="M203.41,93.44l2.07,8.19L216.63,66.4h1.93l11.07,35.23,2.14-8.19,7.73-27h2.21l-11.07,38h-1.9l-9.39-28.58L217.58,69l-1.93,6.82-9.25,28.58h-1.9l-11-38h2.18Z"/><path class="cls-1" d="M275.66,104.44a26.38,26.38,0,0,1-.7-7,15.26,15.26,0,0,1-6.15,5.66,19,19,0,0,1-8.82,2,12.29,12.29,0,0,1-8.49-2.87,9.53,9.53,0,0,1-3.22-7.47A9.64,9.64,0,0,1,253,86.42q4.73-3.15,12.57-3.22H275V77.65a9.35,9.35,0,0,0-3-7.42q-3-2.64-8.6-2.64a13.84,13.84,0,0,0-8.68,2.67,8.06,8.06,0,0,0-3.48,6.61l-1.9-.07a9.74,9.74,0,0,1,4.08-7.87,15.57,15.57,0,0,1,10-3.23q6.15,0,9.77,3.08a11,11,0,0,1,3.73,8.67V95.62q0,6.26,1,8.51v.32ZM260,103.24a17.07,17.07,0,0,0,9.19-2.39A14.81,14.81,0,0,0,275,94.14v-9h-8.79q-8.16,0-12.48,3.23a7.94,7.94,0,0,0-3.52,6.57,7.56,7.56,0,0,0,2.78,5.91A10.3,10.3,0,0,0,260,103.24Z"/><path class="cls-1" d="M302,103.24a13,13,0,0,0,8.53-2.74,10.18,10.18,0,0,0,3.67-7.59h1.9a11.89,11.89,0,0,1-4.25,8.88,14.73,14.73,0,0,1-9.84,3.36A13.85,13.85,0,0,1,290.66,100q-4.2-5.17-4.2-14V84.68q0-8.65,4.2-13.82a13.77,13.77,0,0,1,11.27-5.17,14.18,14.18,0,0,1,10,3.62A13.24,13.24,0,0,1,316.09,79h-1.9a11.5,11.5,0,0,0-3.6-8.24,12.24,12.24,0,0,0-8.67-3.11,12,12,0,0,0-10,4.59q-3.6,4.59-3.6,12.74v1.23q0,8,3.64,12.53A12.1,12.1,0,0,0,302,103.24Z"/><path class="cls-1" d="M325.09,54.52a1.92,1.92,0,0,1,.56-1.39,1.84,1.84,0,0,1,1.37-.58,2,2,0,0,1,2,2,1.84,1.84,0,0,1-.58,1.37,1.92,1.92,0,0,1-1.39.56,1.92,1.92,0,0,1-1.93-1.93ZM328,104.44h-1.9v-38H328Z"/><path class="cls-1" d="M337.57,84.68a22.28,22.28,0,0,1,2.09-9.79,16.09,16.09,0,0,1,5.91-6.77,15.74,15.74,0,0,1,8.63-2.43,15.65,15.65,0,0,1,14.5,9,22.1,22.1,0,0,1,2.16,9.74v1.69A22.4,22.4,0,0,1,368.79,96a16,16,0,0,1-5.89,6.75,15.74,15.74,0,0,1-8.63,2.43,15.74,15.74,0,0,1-14.55-9.09,22.06,22.06,0,0,1-2.14-9.69Zm1.9,1.48a20,20,0,0,0,1.88,8.7,14.82,14.82,0,0,0,5.24,6.17,13.63,13.63,0,0,0,7.68,2.21,13.19,13.19,0,0,0,10.6-4.89q4.1-4.89,4.1-12.59V84.68a19.8,19.8,0,0,0-1.9-8.65,15,15,0,0,0-5.26-6.21,13.43,13.43,0,0,0-7.61-2.23,13.16,13.16,0,0,0-10.62,5A18.89,18.89,0,0,0,339.47,85Z"/><path class="cls-1" d="M170.42,65.69,140.09,13.15A26.31,26.31,0,0,0,117.31,0H56.64A26.31,26.31,0,0,0,33.86,13.15L3.52,65.69A26.31,26.31,0,0,0,3.52,92l30.33,52.54a26.31,26.31,0,0,0,22.78,13.15h60.66a26.31,26.31,0,0,0,22.78-13.15L170.42,92A26.31,26.31,0,0,0,170.42,65.69ZM63.61,69.36,38.51,79.71l25.1,10.15v7.86l-32.8-15.2V76.66L63.61,61.5Zm13.15,41.19H70.39l24.38-63.4h6.34Zm66.37-28.07-34.25,15.2V90L135.4,79.47,108.89,69.08V61.46l34.25,15.16Z"/></g></g></svg>